<svg width="100%" height="100%" viewBox="0 0 60 71" fill="none" xmlns="http://www.w3.org/2000/svg">
<path d="M38.0999 45.4923H29.9225C29.2855 45.4923 28.6724 45.2136 28.2504 44.7359L26.0209 42.2118C25.6865 41.8375 25.2088 41.6226 24.7071 41.6226C24.2055 41.6226 23.7278 41.8375 23.3933 42.2118L21.4824 44.3776C20.8533 45.0862 19.9536 45.4923 19.014 45.4923H0.350098C0.748219 48.2234 1.50465 50.8351 2.58754 53.2795H15.5344C16.0361 53.2795 16.5138 53.0725 16.8562 52.7142L19.5077 49.9512C19.8341 49.6089 20.296 49.4098 20.7737 49.4098H20.8852C21.3868 49.4098 21.8645 49.6248 22.199 49.999L24.4284 52.5231C24.8505 53.0009 25.4636 53.2795 26.1006 53.2795H56.939C58.0299 50.843 58.7783 48.2314 59.1764 45.4923H38.092H38.0999Z" fill="currentColor"/>
<path d="M23.1628 60.995H17.6607C17.0237 60.995 16.4106 60.7163 15.9886 60.2386L13.7591 57.7145C13.4247 57.3402 12.947 57.1252 12.4453 57.1252C11.9437 57.1252 11.466 57.3402 11.1315 57.7145L9.22056 59.8802C8.7667 60.3898 8.16952 60.7402 7.5166 60.8915C12.9709 67.0385 20.9094 70.94 29.7716 70.94C38.5939 70.94 46.4847 67.0862 51.9389 60.987H23.1628V60.995Z" fill="currentColor"/>
<path d="M26.7617 37.0681C27.2633 37.0681 27.7411 36.8611 28.0834 36.5027L30.7349 33.7398C31.0614 33.3974 31.5232 33.1983 32.001 33.1983H32.1124C32.6141 33.1983 33.0918 33.4133 33.4262 33.7876L35.6557 36.3116C36.0777 36.7894 36.6908 37.0681 37.3278 37.0681H59.527V29.3605H41.0065C40.3695 29.3605 39.7564 29.0818 39.3343 28.604L37.1049 26.0799C36.7704 25.7057 36.2927 25.4907 35.7911 25.4907C35.2894 25.4907 34.8117 25.7057 34.4773 26.0799L32.5663 28.2457C31.9373 28.9544 31.0375 29.3605 30.0979 29.3605H0V37.0681H26.7617Z" fill="currentColor"/>
<path d="M37.8533 20.9441C38.355 20.9441 38.8327 20.7371 39.1751 20.3787L41.8266 17.6158C42.153 17.2734 42.6149 17.0743 43.0926 17.0743H43.2041C43.7057 17.0743 44.1835 17.2893 44.5179 17.6636L46.7474 20.1876C47.1694 20.6654 47.7825 20.9441 48.4195 20.9441H54.3992C54.3992 20.9441 56.7482 20.9122 59.527 20.8963V14.3432L29.7635 0.600098L0 14.3353V20.9361H37.8533V20.9441Z" fill="currentColor"/>
</svg>
